Coordinates
version=1
nRows=26
nColumns=22
inDegrees=yes

Units are S.I. units (second, meters, Newtons, ...)
If the header above contains a line with 'inDegrees', this indicates whether rotational values are in degrees (yes) or radians (no).

endheader
time	pelvis_tilt	pelvis_list	pelvis_rotation	pelvis_tx	pelvis_ty	pelvis_tz	hip_flexion_r	hip_adduction_r	hip_rotation_r	knee_angle_r	ankle_angle_r	subtalar_angle_r	hip_flexion_l	hip_adduction_l	hip_rotation_l	knee_angle_l	ankle_angle_l	subtalar_angle_l	lumbar_extension	lumbar_bending	lumbar_rotation
      1.38000000	      5.20149361	     -2.74448956	      5.20791960	      1.12962288	      0.94424382	     -0.08885294	     -7.65019095	      4.79846202	     -9.40884794	     -7.75972658	     10.34243111	      0.40710886	     -4.65521932	     -3.30984890	    -11.77513984	    -14.07655386	     20.52965710	     -5.54088916	    -11.25370478	      2.94480512	     -9.09147770
      1.39000000	      5.22349929	     -2.76147611	      5.15464402	      1.12930945	      0.94431029	     -0.08850507	     -7.62438798	      4.82332864	     -9.39200181	     -7.80513626	     10.32181741	      0.38614416	     -4.63855848	     -3.34657570	    -11.83528099	    -14.12320085	     20.52069245	     -5.55663449	    -11.27325506	      2.95580654	     -9.06751884
      1.40000000	      5.22765097	     -2.78435318	      5.08444831	      1.12898090	      0.94435001	     -0.08812604	     -7.58189404	      4.85168825	     -9.35582884	     -7.83874404	     10.30412034	      0.34838743	     -4.59904802	     -3.39128484	    -11.94646485	    -14.17857166	     20.53459650	     -5.57742092	    -11.27131507	      2.96777266	     -9.01759781
      1.41000000	      5.24785173	     -2.79289425	      5.03648626	      1.12859271	      0.94442156	     -0.08780001	     -7.54972968	      4.86659812	     -9.33213091	     -7.88502104	     10.29250437	      0.33653886	     -4.58096331	     -3.41415627	    -11.97362251	    -14.21277097	     20.52726056	     -5.58542782	    -11.29887474	      2.97506702	     -9.01876475
      1.42000000	      5.25813315	     -2.80845111	      4.96158559	      1.12821785	      0.94447474	     -0.08746629	     -7.50890788	      4.88169684	     -9.29680049	     -7.92455912	     10.27625390	      0.31525582	     -4.54596644	     -3.44654543	    -12.08268974	    -14.27018843	     20.52530156	     -5.60571587	    -11.30656576	      2.99409810	     -8.97737132
      1.43000000	      5.28224146	     -2.80787926	      4.91689673	      1.12781993	      0.94454762	     -0.08718509	     -7.48828642	      4.88540454	     -9.26673006	     -7.95836098	     10.26442388	      0.31031121	     -4.53286169	     -3.45688426	    -12.10277455	    -14.30404767	     20.51816136	     -5.61202463	    -11.33189792	      3.00132680	     -8.99281581
      1.44000000	      5.30706861	     -2.80653858	      4.86557379	      1.12741935	      0.94461641	     -0.08688904	     -7.47572824	      4.88954729	     -9.22829545	     -7.97619986	     10.24570785	      0.30413188	     -4.51224542	     -3.47145810	    -12.16471009	    -14.35638411	     20.50199678	     -5.62698383	    -11.35585763	      3.00890982	     -8.98921905
      1.45000000	      5.32747721	     -2.80651430	      4.81556972	      1.12703080	      0.94467261	     -0.08657266	     -7.47619343	      4.90058994	     -9.17214598	     -7.95966275	     10.22252297	      0.29619437	     -4.48853246	     -3.48922747	    -12.23209883	    -14.40541665	     20.49309012	     -5.64185277	    -11.36841431	      3.01393035	     -8.98192691
      1.46000000	      5.34374733	     -2.80040600	      4.77982292	      1.12665782	      0.94471858	     -0.08627822	     -7.47172552	      4.90496478	     -9.17419274	     -7.94819231	     10.22108243	      0.29561371	     -4.48069952	     -3.49175922	    -12.22887781	    -14.41110920	     20.49234799	     -5.64218860	    -11.36796444	      3.01694564	     -8.98918481
      1.47000000	      5.37005934	     -2.79770989	      4.74122600	      1.12621570	      0.94477629	     -0.08594043	     -7.49396613	      4.92218617	     -9.09251561	     -7.89622884	     10.17728199	      0.28236686	     -4.44253024	     -3.51429141	    -12.28924965	    -14.49337602	     20.46746593	     -5.65643725	    -11.39049619	      3.02279539	     -8.99913312
      1.48000000	      5.38567802	     -2.79160738	      4.70064804	      1.12579544	      0.94482138	     -0.08560667	     -7.48859946	      4.92874179	     -9.09578635	     -7.87911725	     10.17431774	      0.28101332	     -4.43297111	     -3.51853152	    -12.28727740	    -14.49626897	     20.46683198	     -5.65657683	    -11.39089449	      3.02756919	     -9.00615971
      1.49000000	      5.40309109	     -2.80440254	      4.65201788	      1.12534631	      0.94487489	     -0.08521943	     -7.52072958	      4.96755795	     -8.99838688	     -7.78331434	     10.09306813	      0.25069057	     -4.38929042	     -3.56004617	    -12.37881168	    -14.56995900	     20.43264915	     -5.66990054	    -11.39648649	      3.05068373	     -8.99469564
      1.50000000	      5.42280621	     -2.81735567	      4.58520761	      1.12486283	      0.94493715	     -0.08481351	     -7.51811155	      4.99741965	     -8.91793497	     -7.75861545	     10.01969590	      0.21115297	     -4.37865731	     -3.58885031	    -12.42941066	    -14.58310863	     20.43944203	     -5.66330868	    -11.40966109	      3.07848057	     -8.97862911
      1.51000000	      5.43856855	     -2.80797113	      4.54473480	      1.12438037	      0.94499412	     -0.08444131	     -7.51073435	      5.00345658	     -8.92425124	     -7.74003654	     10.01876226	      0.20929720	     -4.36645240	     -3.59173793	    -12.42654077	    -14.58484086	     20.43714106	     -5.66304310	    -11.41490275	      3.08026627	     -8.98483776
      1.52000000	      5.46471508	     -2.79785119	      4.49061479	      1.12387583	      0.94507736	     -0.08403080	     -7.52841262	      5.01345079	     -8.86067463	     -7.69009759	      9.96288522	      0.17147713	     -4.34363810	     -3.60450525	    -12.49949334	    -14.63413036	     20.37473145	     -5.67178506	    -11.43598082	      3.08016267	     -8.96839050
      1.53000000	      5.49262096	     -2.79734346	      4.42565530	      1.12337127	      0.94516624	     -0.08359829	     -7.52424040	      5.02900852	     -8.79363331	     -7.68678151	      9.91604281	      0.12876456	     -4.35404017	     -3.61819095	    -12.54028248	    -14.62042031	     20.35118001	     -5.66803114	    -11.45641242	      3.09395497	     -8.95608072
      1.54000000	      5.51180625	     -2.78545796	      4.38932136	      1.12287150	      0.94523593	     -0.08319408	     -7.51635352	      5.03491802	     -8.79764196	     -7.67346512	      9.91460799	      0.12649972	     -4.34405341	     -3.62170773	    -12.53668621	    -14.62228392	     20.34796965	     -5.66777948	    -11.46066428	      3.09400833	     -8.96055485
      1.55000000	      5.55178080	     -2.76888352	      4.31314618	      1.12232553	      0.94535838	     -0.08270477	     -7.52281239	      5.03472748	     -8.71460265	     -7.66911285	      9.85165248	      0.06512377	     -4.34988305	     -3.62716631	    -12.62091924	    -14.64465710	     20.25751101	     -5.67053856	    -11.49815333	      3.08285910	     -8.91065368
      1.56000000	      5.58526085	     -2.75727228	      4.26987843	      1.12171590	      0.94546365	     -0.08224051	     -7.50602940	      5.04212815	     -8.68649973	     -7.68954508	      9.83271529	      0.04699178	     -4.33716772	     -3.63654367	    -12.61751793	    -14.66815237	     20.23594782	     -5.66656748	    -11.53546560	      3.07898302	     -8.90229128
      1.57000000	      5.62163142	     -2.74824401	      4.21709135	      1.12108417	      0.94558276	     -0.08176214	     -7.48594343	      5.04956998	     -8.65971753	     -7.71808668	      9.80278214	      0.02923504	     -4.31840327	     -3.65038285	    -12.62480465	    -14.71058557	     20.19336206	     -5.66671778	    -11.57278161	      3.08407744	     -8.88550786
      1.58000000	      5.64802058	     -2.75549298	      4.15085789	      1.12042292	      0.94570301	     -0.08120452	     -7.45455012	      5.07820853	     -8.61094045	     -7.73742771	      9.73788806	     -0.01964150	     -4.27979982	     -3.69056506	    -12.69491598	    -14.76524284	     20.11923823	     -5.65979856	    -11.60050490	      3.09395150	     -8.84253601
      1.59000000	      5.67742185	     -2.76729206	      4.10015327	      1.11969632	      0.94582440	     -0.08066836	     -7.41981497	      5.11358630	     -8.56209618	     -7.76156694	      9.68400768	     -0.06820154	     -4.22026415	     -3.73802667	    -12.72079093	    -14.85445485	     20.07525970	     -5.64447340	    -11.63486703	      3.11618257	     -8.82212497
      1.60000000	      5.70632868	     -2.78153376	      4.05846682	      1.11893312	      0.94595104	     -0.08013091	     -7.38200860	      5.15444327	     -8.51705554	     -7.78335353	      9.62470435	     -0.11697078	     -4.14517926	     -3.79129348	    -12.73988110	    -14.96442065	     20.03292602	     -5.63413011	    -11.66752504	      3.14339988	     -8.81292541
      1.61000000	      5.73695405	     -2.79663024	      4.02226913	      1.11812968	      0.94608624	     -0.07959645	     -7.34358809	      5.19792023	     -8.46489929	     -7.80330020	      9.55762260	     -0.17177105	     -4.05702321	     -3.84751520	    -12.75433146	    -15.09438062	     19.99445087	     -5.62993707	    -11.70148253	      3.17506782	     -8.80959485
      1.62000000	      5.78117805	     -2.80771327	      3.99097282	      1.11730400	      0.94624940	     -0.07905131	     -7.31484583	      5.23936894	     -8.41429647	     -7.82891754	      9.49074444	     -0.22173502	     -3.97373948	     -3.90258074	    -12.76117551	    -15.23918691	     19.94504033	     -5.63983696	    -11.74619312	      3.20129901	     -8.81122002
      1.63000000	      5.83271360	     -2.81608508	      3.95971414	      1.11645058	      0.94643110	     -0.07850392	     -7.28916052	      5.27847880	     -8.36145728	     -7.85701969	      9.41540958	     -0.27704159	     -3.88966967	     -3.95496141	    -12.76825986	    -15.39574022	     19.89790127	     -5.66043074	    -11.79560411	      3.22863247	     -8.81241323
